# xmcd
#
# Track frame offsets:
#	150
#	28096
#	50304
#	76202
#	100032
#	124574
#	173682
#	203985
#
# Disc length: 3001 seconds
#
# Revision: 2
# Processed by: cddbd v1.5.1PL0 Copyright (c) Steve Scherf et al.
# Submitted via: audiograbber 1.83.01
#
DISCID=5a0bb708
DTITLE=Village Connection - Shut Up and Play Live
DYEAR=2004
DGENRE=Blues
TTITLE0=Ja da war i gern wieder der depperte Buah
TTITLE1=Nelly
TTITLE2=Home Feeling
TTITLE3=Blues von Seite 201
TTITLE4=Sag magst du vieleicht a Watsch´n
TTITLE5=Hallo alter Säfufer
TTITLE6=Roy Buchanan Blues
TTITLE7=Fraulein
EXTD=
EXTT0=
EXTT1=
EXTT2=
EXTT3=
EXTT4=
EXTT5=
EXTT6=
EXTT7=
PLAYORDER=
